<svg width="24" height="24" viewBox="0 0 24 24" fill="none" xmlns="http://www.w3.org/2000/svg">
<path d="M3.92857 0.5H0.5V3.92857H3.92857C13.3963 3.92857 21.0714 11.6037 21.0714 21.0714V24.5H24.5V21.0714C24.5 9.71014 15.2899 0.5 3.92857 0.5Z" fill="black"/>
<path d="M3.92857 9.07141H0.5V12.5H3.92857C8.66243 12.5 12.5 16.3376 12.5 21.0714V24.5H15.9286V21.0714C15.9286 14.444 10.556 9.07141 3.92857 9.07141Z" fill="black"/>
<path d="M3.92857 24.5C5.82212 24.5 7.35714 22.9651 7.35714 21.0715C7.35714 19.1779 5.82212 17.6429 3.92857 17.6429C2.03502 17.6429 0.5 19.1779 0.5 21.0715C0.5 22.9651 2.03502 24.5 3.92857 24.5Z" fill="black"/>
</svg>
