<svg width="20" height="24" viewBox="0 0 20 24" fill="none" xmlns="http://www.w3.org/2000/svg">
<path d="M9.9999 0C4.88793 0 0.729248 4.15892 0.729248 9.27097V22.571C0.729248 22.8139 0.740588 23.0682 0.764118 23.3484C0.795248 23.7196 1.1056 24 1.47115 24C1.48436 24 1.49685 23.9993 1.51006 23.9987C1.73987 24.0084 1.97034 23.9067 2.11525 23.7065L4.38193 20.5855L6.64794 23.7068C6.65409 23.7156 6.66254 23.7218 6.66935 23.7301C6.69035 23.7566 6.71322 23.7812 6.73886 23.8046C6.75394 23.8192 6.76926 23.8342 6.78598 23.8474C6.79279 23.8526 6.79846 23.8588 6.80528 23.864C6.82411 23.8778 6.84486 23.8872 6.86513 23.899C6.88305 23.9095 6.89976 23.9211 6.9184 23.93C6.95943 23.9493 7.00112 23.9639 7.04329 23.975C7.05035 23.9768 7.0565 23.98 7.06284 23.9813C7.11141 23.9928 7.16064 23.9976 7.20993 23.9987C7.21415 23.9987 7.2191 24 7.22314 24C7.23165 24 7.23985 23.9964 7.24884 23.9963C7.30374 23.9941 7.35841 23.9855 7.4112 23.9709C7.42441 23.9675 7.43762 23.9654 7.45011 23.9609C7.51117 23.9404 7.56818 23.9106 7.62218 23.8738C7.62785 23.8697 7.63466 23.8685 7.64034 23.8646C7.65144 23.8564 7.65964 23.846 7.67026 23.8378C7.68818 23.8232 7.70562 23.8083 7.72166 23.792C7.74097 23.7725 7.75841 23.7528 7.77494 23.732C7.78272 23.723 7.79099 23.716 7.79804 23.7067L10.0638 20.5857L12.3305 23.707C12.3368 23.716 12.3458 23.7222 12.3526 23.7309C12.3729 23.7567 12.3958 23.7808 12.4207 23.8042C12.4368 23.8191 12.4525 23.8343 12.4693 23.8475C12.4764 23.8527 12.4811 23.8593 12.4881 23.8641C12.5068 23.8777 12.5277 23.8871 12.5471 23.8985C12.5652 23.9093 12.5824 23.9214 12.6013 23.9301C12.642 23.9494 12.6837 23.964 12.7261 23.9751C12.7329 23.9768 12.7386 23.98 12.7454 23.9814C12.794 23.9929 12.8432 23.9977 12.8925 23.9988C12.8966 23.9988 12.9016 24.0001 12.9057 24.0001C12.9142 24.0001 12.9224 23.9965 12.9314 23.9963C12.9863 23.9942 13.0406 23.9856 13.0937 23.971C13.107 23.9675 13.1202 23.9654 13.1327 23.961C13.194 23.9405 13.2507 23.9106 13.3049 23.8739C13.3103 23.8698 13.3174 23.8686 13.3228 23.8646C13.3339 23.8565 13.3424 23.8465 13.3527 23.8379C13.3707 23.8233 13.3881 23.808 13.4048 23.7917C13.4235 23.7729 13.4409 23.7531 13.4568 23.733C13.4644 23.7237 13.4733 23.7164 13.4805 23.7065L15.7476 20.5834L17.9583 23.6125C18.1338 23.8536 18.4411 23.9587 18.728 23.8769C19.0138 23.7951 19.2194 23.5435 19.2415 23.246C19.2561 23.048 19.2705 22.8126 19.2705 22.571V9.27097C19.2705 4.15886 15.112 0 9.9999 0ZM17.8491 21.0522L16.3203 18.9569C16.1864 18.7733 15.9734 18.6651 15.7464 18.6651C15.5188 18.6654 15.3049 18.7744 15.1709 18.9582L12.9049 22.0796L10.6391 18.9582C10.505 18.7739 10.2912 18.6651 10.0636 18.6651C9.8359 18.6651 9.6222 18.7741 9.489 18.9582L7.22236 22.0796L4.95707 18.9582C4.8232 18.7739 4.60944 18.6651 4.38181 18.6651C4.15417 18.6651 3.94042 18.7741 3.80654 18.9582L2.15049 21.2394V9.27097C2.15049 4.94282 5.67213 1.42136 9.9998 1.42136C14.3284 1.42136 17.8491 4.94282 17.8491 9.27097V21.0522Z" fill="black"/>
<path d="M6.06842 6.98352C4.93086 6.98352 4.00513 7.90895 4.00513 9.04675C4.00513 10.1846 4.93086 11.11 6.06842 11.11C7.20598 11.11 8.1317 10.1846 8.1317 9.04675C8.1317 7.90889 7.20598 6.98352 6.06842 6.98352ZM6.06842 9.68869C5.71445 9.68869 5.42643 9.40072 5.42643 9.04669C5.42643 8.69279 5.71439 8.40476 6.06842 8.40476C6.42245 8.40476 6.71041 8.69273 6.71041 9.04669C6.71041 9.40072 6.42239 9.68869 6.06842 9.68869Z" fill="black"/>
<path d="M14.0601 6.98352C12.9226 6.98352 11.9968 7.90895 11.9968 9.04675C11.9968 10.1846 12.9226 11.11 14.0601 11.11C15.1976 11.11 16.1234 10.1846 16.1234 9.04675C16.1234 7.90889 15.1974 6.98352 14.0601 6.98352ZM14.0601 9.68869C13.7062 9.68869 13.4181 9.40072 13.4181 9.04669C13.4181 8.69279 13.706 8.40476 14.0601 8.40476C14.4142 8.40476 14.7021 8.69273 14.7021 9.04669C14.7021 9.40072 14.4141 9.68869 14.0601 9.68869Z" fill="black"/>
</svg>
